<svg id="S_PL_KulerIcon_N_2x" data-name="S_PL_KulerIcon_N@2x" xmlns="http://www.w3.org/2000/svg" width="46" height="46" viewBox="0 0 46 46">
  <defs>
    <style>
      .fill {
        fill-rule: evenodd;
        opacity: 0.65;
      }

      
    </style>
  </defs>
  <title>KulerIcon</title>
  <path class="fill" d="M35,35a3.98,3.98,0,0,0-2.031.554l-4.826-4.826a11.952,11.952,0,0,0,0-15.458l4.684-4.684a4,4,0,1,0-1.414-1.414l-4.684,4.684a11.979,11.979,0,1,0,0,18.286l4.826,4.826A4,4,0,1,0,35,35ZM28.979,23a9.931,9.931,0,0,1-2.254,6.31L22.4,24.983a3.936,3.936,0,0,0,0-3.966l4.327-4.327A9.932,9.932,0,0,1,28.979,23ZM19,32.979a9.979,9.979,0,1,1,6.31-17.7L20.983,19.6a3.933,3.933,0,1,0,0,6.794l4.327,4.327A9.932,9.932,0,0,1,19,32.979Z"/>
  </svg>