<?xml version="1.0" standalone="no"?><!DOCTYPE svg PUBLIC "-//W3C//DTD SVG 1.1//EN" "http://www.w3.org/Graphics/SVG/1.1/DTD/svg11.dtd"><svg id="CCLinkedLibraryAssetMissing" viewBox="0 0 13 13" version="1.1"	xmlns="http://www.w3.org/2000/svg" xmlns:xlink="http://www.w3.org/1999/xlink" xml:space="preserve"	x="0px" y="0px" width="13px" height="13px">	<g id="Layer%201">		<g>			<path id="Ellipse" d="M 0 8.5 C 0 6.5669 1.5669 5 3.5 5 C 5.4331 5 7 6.5669 7 8.5 C 7 10.4331 5.4331 12 3.5 12 C 1.5669 12 0 10.4331 0 8.5 Z" fill="#f51602"/>			<path id="Fill" d="M 5.4543 2.8973 C 4.0673 2.6782 2.8511 3.716 2.87 5.055 C 3.0747 5.0177 3.2845 5 3.5 5 C 5.4331 5 7 6.5669 7 8.5 C 7 9.0359 6.8802 9.541 6.665 9.995 L 10.6492 10 C 11.1375 9.942 11.4194 9.8127 11.4194 9.8127 C 12.3506 9.464 13 8.6563 13 7.3542 C 13 6.1787 11.865 4.9535 10.5313 4.8438 C 10.6152 4.6438 10.7485 4.1631 10.7485 3.9373 C 10.7485 2.8652 9.7395 2 8.4971 2 C 7.5791 2 7.0024 2.6655 6.6563 3.3438 C 6.3672 3.2469 5.9063 2.9688 5.4543 2.8973 Z" fill="#000000"/>		</g>	</g></svg>