<svg id="icons" xmlns="http://www.w3.org/2000/svg" width="36" height="36" viewBox="0 0 36 36">
  <defs>
    <style>
      .cls-1 {
        fill: #142500;
      }

      .cls-2, .cls-3 {
        fill: #86eb00;
      }

      .cls-2 {
        fill-rule: evenodd;
      }
    </style>
  </defs>
  <title>S_Typekit_Color_18_N@2x</title>
  <rect class="cls-1" x="1.5" y="1.54" width="33" height="32.92"/>
  <path class="cls-2" d="M0,36H36V0H0ZM1.5,1.54h33V34.46H1.5Z"/>
  <g>
    <path class="cls-3" d="M10.75,10.74H6.59c-.12,0-.17-.05-.15-.2l.3-2.13c.02-.13.07-.18.2-.18H17.33c.15,0,.2.05.22.2l.2,2.11c.02.15-.05.2-.18.2H13.44V24.95c0,.13-.05.2-.19.2H10.94c-.14,0-.19-.05-.19-.2Z"/>
    <path class="cls-3" d="M22.08,18.08l3.78-5.26c.1-.12.13-.17.25-.17h2.52c.15,0,.2.1.1.22-.59.79-3.31,4.24-4.2,5.36a.136.136,0,0,0,0,.15l4.79,6.57c.05.1.03.2-.12.2H26.28a.231.231,0,0,1-.25-.15c-.81-1.11-2.91-4.11-3.95-5.66v5.64c0,.12-.03.17-.18.17H19.58c-.18,0-.2-.05-.2-.2V8.38c0-.07.02-.15.17-.15H21.9a.163.163,0,0,1,.18.18Z"/>
  </g>
</svg>
