<!DOCTYPE svg PUBLIC "-//W3C//DTD SVG 20010904//EN" "http://www.w3.org/TR/2001/REC-SVG-20010904/DTD/svg10.dtd">
<svg version="1.0" xmlns="http://www.w3.org/2000/svg" width="56px" height="47px" viewBox="0 0 560 470" preserveAspectRatio="xMidYMid meet">
<g id="layer101" fill="#010101" stroke="none">
 <path d="M60 410 c-39 -78 -60 -159 -60 -236 0 -58 15 -162 24 -172 3 -2 119 20 258 50 l253 54 2 46 c1 26 6 56 12 67 27 50 22 53 -210 155 -121 53 -227 96 -235 96 -7 0 -27 -27 -44 -60z"/>
 </g>
<g id="layer102" fill="#36373a" stroke="none">
 <path d="M60 410 c-39 -78 -60 -159 -60 -236 0 -58 15 -162 24 -172 3 -2 119 20 258 50 l253 54 2 46 c1 26 6 56 12 67 27 50 22 53 -210 155 -121 53 -227 96 -235 96 -7 0 -27 -27 -44 -60z m266 -46 c120 -52 220 -97 222 -99 2 -1 -4 -25 -12 -51 -8 -27 -14 -60 -13 -73 2 -24 -3 -26 -243 -77 -134 -29 -246 -52 -247 -50 -1 1 -8 34 -15 74 -17 99 -2 198 45 297 20 41 38 75 40 75 2 0 103 -43 223 -96z"/>
 <path d="M301 307 c-35 -18 -42 -47 -22 -93 22 -48 59 -68 98 -53 26 10 43 26 43 42 0 12 -23 8 -41 -9 -11 -10 -25 -13 -38 -9 -27 8 -27 25 0 25 60 0 79 53 33 89 -31 24 -40 25 -73 8z m59 -32 c10 -12 10 -18 0 -30 -7 -8 -18 -15 -25 -15 -19 0 -38 28 -31 45 7 19 40 19 56 0z"/>
 <path d="M147 278 c-56 -12 -57 -26 -1 -51 73 -34 87 -42 92 -54 6 -19 -27 -28 -49 -15 -25 16 -39 15 -39 -3 0 -39 87 -42 114 -3 21 29 9 47 -47 73 l-50 24 33 8 c40 10 53 34 18 32 -12 -1 -45 -6 -71 -11z"/>
 </g>
<g id="layer103" fill="#5d5c61" stroke="none">
 <path d="M60 410 c-39 -78 -60 -159 -60 -236 0 -58 15 -162 24 -172 3 -2 119 20 258 50 246 52 253 55 254 78 1 17 0 19 -3 5 -3 -18 -32 -26 -231 -68 -125 -26 -237 -50 -248 -53 -20 -5 -23 0 -33 46 -23 109 -7 229 45 334 14 28 29 55 33 59 4 4 108 -36 230 -89 203 -89 222 -99 216 -118 -4 -12 -9 -34 -11 -51 -4 -25 -2 -24 11 10 8 22 15 47 15 56 0 11 -64 44 -221 113 -121 53 -227 96 -235 96 -7 0 -27 -27 -44 -60z"/>
 <path d="M300 307 c-40 -20 -40 -87 0 -127 34 -34 120 -19 120 21 0 15 -30 10 -36 -6 -8 -19 -35 -19 -60 0 -18 14 -17 14 13 15 55 0 83 50 46 82 -27 24 -55 29 -83 15z m60 -33 c18 -21 -9 -49 -39 -39 -20 6 -28 34 -14 48 11 12 40 7 53 -9z"/>
 <path d="M155 276 c-27 -6 -49 -16 -48 -21 1 -6 19 -18 40 -28 81 -38 88 -43 88 -57 0 -9 -11 -16 -27 -18 -16 -2 -28 1 -28 7 0 6 -7 11 -16 11 -25 0 -12 -32 18 -42 42 -14 83 9 83 47 0 27 -6 32 -55 52 -53 21 -54 22 -25 28 48 11 55 14 55 25 0 12 -20 12 -85 -4z"/>
 </g>
<g id="layer104" fill="#86898f" stroke="none">
 <path d="M55 398 c-19 -40 -37 -89 -40 -108 -4 -23 1 -16 13 22 20 60 68 148 80 148 4 0 105 -43 225 -96 120 -52 221 -94 223 -91 6 5 -433 197 -452 197 -9 0 -30 -31 -49 -72z"/>
 <path d="M285 294 c-40 -40 10 -134 71 -134 34 0 78 40 53 49 -7 2 -16 -4 -21 -13 -11 -20 -51 -21 -68 -1 -11 13 -8 15 17 15 18 0 38 9 49 21 17 19 17 23 3 47 -18 34 -77 43 -104 16z m80 -24 c9 -27 -1 -40 -31 -40 -26 0 -40 20 -30 45 8 23 53 19 61 -5z"/>
 <path d="M162 277 c-30 -6 -51 -15 -49 -21 1 -6 31 -24 65 -40 43 -20 62 -35 62 -48 0 -13 -8 -18 -29 -18 -17 0 -33 5 -36 10 -4 6 -11 8 -16 4 -18 -10 12 -34 43 -34 39 0 68 17 68 39 0 23 -21 41 -74 63 -42 16 -40 20 17 32 15 4 25 11 22 16 -3 6 -9 9 -13 9 -4 -1 -31 -6 -60 -12z"/>
 <path d="M541 229 c-6 -18 -11 -39 -11 -48 1 -9 8 4 16 27 9 24 13 46 11 48 -3 3 -10 -9 -16 -27z"/>
 <path d="M3 170 c0 -47 2 -66 4 -42 2 23 2 61 0 85 -2 23 -4 4 -4 -43z"/>
 <path d="M531 138 c-1 -19 -7 -28 -23 -31 l-23 -4 23 -2 c25 -1 36 17 29 46 -3 12 -5 9 -6 -9z"/>
 <path d="M395 85 c-27 -7 -41 -13 -30 -13 11 0 43 6 70 13 28 7 41 13 30 13 -11 0 -42 -6 -70 -13z"/>
 <path d="M11 65 c-1 -41 11 -65 33 -64 17 1 17 2 4 6 -10 2 -21 17 -24 31 -9 42 -12 49 -13 27z"/>
 <path d="M255 55 c-27 -7 -41 -13 -30 -13 11 0 43 6 70 13 28 7 41 13 30 13 -11 0 -42 -6 -70 -13z"/>
 <path d="M115 25 c-27 -7 -41 -13 -30 -13 11 0 43 6 70 13 28 7 41 13 30 13 -11 0 -42 -6 -70 -13z"/>
 </g>
<g id="layer105" fill="#aca59a" stroke="none">
 <path d="M55 398 c-19 -40 -37 -86 -40 -103 -3 -16 3 -7 13 20 27 72 61 135 75 141 7 2 111 -38 231 -91 120 -53 220 -94 222 -92 6 6 -434 197 -452 197 -9 0 -29 -31 -49 -72z"/>
 <path d="M287 292 c-10 -10 -17 -27 -17 -38 0 -31 38 -83 65 -90 32 -8 75 10 75 31 0 19 -16 20 -24 0 -7 -18 -47 -20 -64 -3 -18 18 -15 27 8 21 24 -6 70 21 70 42 0 46 -81 72 -113 37z m78 -33 c0 -31 -42 -40 -62 -13 -11 15 -10 21 3 35 22 24 59 10 59 -22z"/>
 <path d="M168 276 c-72 -17 -65 -32 35 -70 25 -10 37 -21 37 -34 0 -27 -28 -36 -55 -18 -26 17 -41 10 -24 -11 15 -17 70 -17 93 0 30 22 15 50 -41 77 -29 14 -53 28 -53 31 0 4 18 9 40 13 23 4 38 11 35 16 -7 11 -4 11 -67 -4z"/>
 <path d="M3 170 c0 -47 2 -66 4 -42 2 23 2 61 0 85 -2 23 -4 4 -4 -43z"/>
 <path d="M540 226 c-5 -15 -10 -35 -10 -44 1 -9 7 1 15 23 16 44 11 63 -5 21z"/>
 <path d="M531 138 c-1 -19 -7 -28 -23 -31 l-23 -4 23 -2 c25 -1 36 17 29 46 -3 12 -5 9 -6 -9z"/>
 <path d="M11 60 c-2 -36 12 -60 33 -59 16 1 17 2 4 6 -10 2 -22 19 -27 36 -5 18 -10 25 -10 17z"/>
 </g>
<g id="layer106" fill="#bfbfc3" stroke="none">
 <path d="M60 410 c-16 -33 -30 -63 -30 -67 1 -4 14 18 31 50 16 32 36 60 43 63 7 3 39 -7 71 -21 32 -14 60 -24 62 -22 5 6 -115 57 -133 57 -7 0 -27 -27 -44 -60z"/>
 <path d="M319 375 c40 -20 75 -34 78 -32 2 2 -25 17 -59 32 -93 40 -104 40 -19 0z"/>
 <path d="M479 305 c40 -20 75 -34 78 -32 2 2 -25 17 -59 32 -93 40 -104 40 -19 0z"/>
 <path d="M287 292 c-10 -10 -17 -27 -17 -38 0 -31 38 -83 65 -90 32 -8 75 10 75 31 0 19 -16 20 -24 0 -7 -18 -47 -20 -64 -3 -19 19 -14 26 12 21 16 -3 31 2 45 16 26 26 26 36 1 61 -25 25 -72 26 -93 2z m67 -5 c24 -18 17 -51 -12 -55 -23 -3 -52 13 -52 29 0 10 29 39 39 39 4 0 15 -6 25 -13z"/>
 <path d="M168 276 c-27 -6 -49 -15 -49 -21 -1 -5 16 -18 37 -28 99 -45 112 -59 70 -79 -20 -9 -29 -9 -38 0 -7 7 -18 12 -26 12 -12 0 -12 -3 -2 -15 16 -20 74 -19 94 1 33 32 17 54 -61 84 -48 18 -47 22 10 34 15 4 27 11 27 16 0 11 1 11 -62 -4z"/>
 <path d="M2 220 c0 -19 2 -27 5 -17 2 9 2 25 0 35 -3 9 -5 1 -5 -18z"/>
 <path d="M542 225 c-7 -14 -12 -34 -12 -43 1 -9 7 1 15 23 16 45 14 58 -3 20z"/>
 <path d="M531 138 c-1 -16 -8 -28 -18 -31 -17 -4 -17 -5 0 -6 20 -1 31 19 24 46 -3 12 -5 9 -6 -9z"/>
 <path d="M11 60 c-2 -36 12 -60 33 -59 16 1 17 2 4 6 -10 2 -22 19 -27 36 -5 18 -10 25 -10 17z"/>
 </g>
<g id="layer107" fill="#f4f2f6" stroke="none">
 <path d="M75 440 c-9 -16 -13 -30 -11 -30 3 0 12 14 21 30 9 17 13 30 11 30 -3 0 -12 -13 -21 -30z"/>
 <path d="M180 435 c14 -8 30 -14 35 -14 6 0 -1 6 -15 14 -14 8 -29 14 -35 14 -5 0 1 -6 15 -14z"/>
 <path d="M270 395 c14 -8 30 -14 35 -14 6 0 -1 6 -15 14 -14 8 -29 14 -35 14 -5 0 1 -6 15 -14z"/>
 <path d="M340 365 c14 -8 30 -14 35 -14 6 0 -1 6 -15 14 -14 8 -29 14 -35 14 -5 0 1 -6 15 -14z"/>
 <path d="M430 325 c14 -8 30 -14 35 -14 6 0 -1 6 -15 14 -14 8 -29 14 -35 14 -5 0 1 -6 15 -14z"/>
 <path d="M289 291 c-23 -19 -24 -20 -9 -62 19 -54 56 -78 97 -63 15 5 29 18 31 29 4 19 2 18 -21 -3 -27 -25 -49 -21 -78 14 -13 16 -12 17 10 11 40 -10 71 8 71 42 0 50 -57 68 -101 32z m65 -4 c28 -20 17 -52 -18 -52 -39 0 -58 31 -32 51 24 17 28 17 50 1z"/>
 <path d="M510 290 c19 -11 40 -19 45 -19 6 0 -6 8 -25 19 -19 11 -39 19 -45 19 -5 0 6 -8 25 -19z"/>
 <path d="M172 275 c-30 -7 -56 -16 -59 -19 -3 -3 25 -20 63 -38 38 -18 70 -39 72 -45 5 -19 -45 -40 -60 -25 -7 7 -19 12 -28 12 -12 -1 -11 -4 4 -15 27 -20 59 -19 87 4 33 27 17 50 -50 76 -28 11 -51 23 -51 26 0 4 18 9 40 13 22 3 40 11 40 16 0 6 -1 10 -2 9 -2 -1 -27 -7 -56 -14z"/>
 </g>

</svg>