<!DOCTYPE svg PUBLIC "-//W3C//DTD SVG 20010904//EN" "http://www.w3.org/TR/2001/REC-SVG-20010904/DTD/svg10.dtd">
<svg version="1.0" xmlns="http://www.w3.org/2000/svg" width="253px" height="92px" viewBox="0 0 2530 920" preserveAspectRatio="xMidYMid meet">
<g id="layer101" fill="#015975" stroke="none">
 <path d="M2155 905 c-33 -8 -343 -75 -690 -150 -346 -74 -644 -139 -660 -144 -17 -4 -204 -137 -415 -295 -335 -251 -415 -316 -384 -316 7 0 404 84 1164 246 245 52 551 117 680 145 129 27 289 61 355 75 66 14 139 33 163 41 53 20 124 81 146 127 18 39 21 121 5 163 -39 103 -188 147 -364 108z"/>
 </g>
<g id="layer102" fill="#5e879c" stroke="none">
 <path d="M2155 905 c-33 -8 -343 -75 -690 -150 -346 -74 -644 -139 -660 -144 -17 -4 -204 -137 -415 -295 -335 -251 -415 -316 -384 -316 7 0 404 84 1164 246 245 52 551 117 680 145 129 27 289 61 355 75 66 14 139 33 163 41 53 20 124 81 146 127 18 39 21 121 5 163 -39 103 -188 147 -364 108z m238 -15 c86 -32 127 -88 127 -172 0 -54 -24 -101 -76 -147 -53 -46 -93 -62 -249 -95 -66 -14 -259 -55 -430 -91 -170 -36 -499 -106 -730 -155 -838 -179 -1020 -218 -1022 -216 -2 1 750 565 771 578 7 4 286 66 621 138 336 72 657 142 715 155 132 30 203 31 273 5z"/>
 <path d="M1773 700 c-12 -5 -26 -18 -32 -29 -16 -29 6 -38 30 -12 19 20 69 30 69 13 0 -4 -20 -18 -45 -31 -50 -26 -58 -53 -24 -72 37 -19 109 5 109 37 0 19 -26 18 -34 -1 -6 -16 -56 -21 -56 -7 0 5 18 17 40 27 22 10 42 27 46 38 12 38 -47 59 -103 37z"/>
 <path d="M1635 638 c20 -101 30 -120 49 -101 4 4 19 7 34 8 17 0 27 5 27 15 0 9 -9 15 -25 15 -26 0 -50 33 -50 73 0 16 -6 22 -21 22 -18 0 -20 -4 -14 -32z"/>
 <path d="M1492 634 c-34 -24 -43 -48 -31 -82 12 -35 56 -57 91 -47 35 11 68 46 68 73 0 26 4 26 -102 5 -31 -6 -37 7 -13 27 10 8 29 10 54 6 44 -7 63 7 32 23 -28 16 -73 13 -99 -5z m76 -91 c-11 -11 -25 -13 -44 -9 -32 8 -21 23 21 28 38 4 42 1 23 -19z"/>
 <path d="M1386 612 c-8 -14 26 -132 39 -132 20 0 24 10 15 38 -5 15 -11 44 -15 65 -5 34 -26 50 -39 29z"/>
 <path d="M1250 578 c0 -7 7 -42 15 -77 16 -68 12 -80 -27 -81 -18 0 -34 -18 -24 -27 3 -3 46 2 96 12 63 13 90 23 90 33 0 11 -9 13 -40 8 -43 -7 -38 -16 -68 104 -8 34 -42 56 -42 28z"/>
 <path d="M1423 455 c-7 -20 2 -29 21 -22 9 4 13 13 10 22 -8 19 -23 19 -31 0z"/>
 </g>
<g id="layer103" fill="#8c939b" stroke="none">
 <path d="M2120 897 c-52 -11 -90 -22 -84 -24 6 -2 52 5 102 17 201 44 319 11 373 -105 20 -43 26 -35 8 12 -41 110 -186 147 -399 100z"/>
 <path d="M1550 774 c-212 -46 -471 -102 -577 -125 l-192 -42 -388 -289 c-213 -159 -390 -297 -391 -305 -3 -12 2 -14 20 -11 232 47 528 113 521 115 -5 2 -126 -21 -268 -51 -143 -31 -260 -54 -262 -53 -6 7 773 583 797 589 14 4 278 62 586 128 307 66 564 122 569 124 38 16 -80 -7 -415 -80z"/>
 <path d="M1773 695 c-18 -8 -33 -21 -33 -30 0 -19 19 -20 34 0 14 18 57 24 63 8 2 -7 -14 -21 -36 -32 -22 -12 -42 -25 -45 -30 -10 -16 5 -41 29 -47 29 -7 95 21 95 40 0 20 -9 20 -29 2 -16 -14 -34 -19 -60 -17 -11 1 -11 4 -1 16 7 8 18 15 26 15 7 0 26 11 41 25 l28 25 -24 20 c-27 23 -44 24 -88 5z"/>
 <path d="M2520 683 c0 -23 -42 -90 -73 -116 -35 -29 -78 -50 -142 -69 -56 -17 -57 -17 -15 -12 68 9 145 50 189 100 37 42 61 98 47 111 -3 4 -6 -3 -6 -14z"/>
 <path d="M1639 663 c-2 -15 2 -48 12 -85 10 -39 11 -39 92 -29 22 3 -3 25 -29 26 -26 0 -30 5 -40 44 -9 39 -32 68 -35 44z"/>
 <path d="M1510 643 c-50 -18 -68 -84 -32 -116 28 -26 88 -22 117 8 25 24 32 49 17 59 -5 3 -34 -1 -65 -8 -48 -11 -57 -11 -57 0 0 7 11 21 24 29 19 13 28 14 50 4 32 -15 48 -3 22 17 -20 14 -49 17 -76 7z m70 -94 c-9 -15 -19 -19 -42 -17 -40 4 -48 25 -11 31 62 9 65 9 53 -14z"/>
 <path d="M1394 613 c-8 -3 -7 -21 4 -66 17 -72 19 -74 33 -60 8 8 7 27 -2 67 -13 60 -17 66 -35 59z"/>
 <path d="M1256 582 c-3 -5 1 -35 9 -68 21 -87 20 -94 -14 -94 -28 0 -49 -15 -38 -26 3 -3 43 3 90 13 86 18 111 38 48 38 -31 0 -35 4 -43 35 -25 95 -29 110 -38 110 -5 0 -11 -4 -14 -8z"/>
 <path d="M2130 460 c-41 -10 -66 -18 -55 -19 11 0 54 8 95 18 41 11 66 19 55 19 -11 0 -54 -8 -95 -18z"/>
 <path d="M1430 460 c-12 -7 -12 -12 -3 -21 10 -10 14 -9 19 5 8 22 2 27 -16 16z"/>
 <path d="M1733 377 c-156 -33 -281 -63 -278 -65 4 -4 587 117 594 124 10 10 -51 -2 -316 -59z"/>
 <path d="M1355 295 c-27 -7 -41 -13 -30 -13 11 0 43 6 70 13 28 7 41 13 30 13 -11 0 -42 -6 -70 -13z"/>
 <path d="M1215 265 c-27 -7 -41 -13 -30 -13 11 0 43 6 70 13 28 7 41 13 30 13 -11 0 -42 -6 -70 -13z"/>
 <path d="M841 187 c-156 -34 -279 -63 -274 -64 9 -3 565 112 588 121 36 15 -67 -4 -314 -57z"/>
 </g>
<g id="layer104" fill="#96b8c9" stroke="none">
 <path d="M2215 915 c21 -7 179 -12 160 -4 -11 4 -54 8 -95 8 -41 -1 -70 -2 -65 -4z"/>
 <path d="M2095 890 c-38 -10 -63 -18 -55 -18 8 -1 49 7 90 17 41 11 66 19 55 19 -11 0 -51 -8 -90 -18z"/>
 <path d="M2425 882 c17 -10 45 -35 63 -56 17 -20 32 -32 32 -27 0 16 -51 71 -81 86 -40 21 -50 18 -14 -3z"/>
 <path d="M1885 845 c-27 -7 -41 -13 -30 -13 11 0 43 6 70 13 28 7 41 13 30 13 -11 0 -42 -6 -70 -13z"/>
 <path d="M1745 815 c-27 -7 -41 -13 -30 -13 11 0 43 6 70 13 28 7 41 13 30 13 -11 0 -42 -6 -70 -13z"/>
 <path d="M1537 772 c-64 -14 -115 -27 -113 -30 5 -4 258 47 265 54 9 8 -38 1 -152 -24z"/>
 <path d="M1350 730 c-20 -6 -21 -8 -5 -8 11 0 31 4 45 8 20 6 21 8 5 8 -11 0 -31 -4 -45 -8z"/>
 <path d="M1053 667 c-128 -28 -231 -52 -229 -55 5 -4 488 97 495 104 10 10 -50 -1 -266 -49z"/>
 <path d="M1773 695 c-18 -8 -33 -21 -33 -30 0 -21 16 -19 41 6 11 11 27 19 36 17 31 -6 24 -27 -16 -47 -22 -12 -42 -25 -45 -30 -10 -15 4 -39 25 -44 28 -7 89 11 96 29 8 23 -5 29 -24 12 -18 -16 -35 -21 -62 -19 -11 1 -11 4 -1 16 7 8 18 15 26 15 7 0 26 11 41 25 l28 25 -24 20 c-27 23 -44 24 -88 5z"/>
 <path d="M2520 685 c0 -27 -44 -97 -77 -121 -34 -26 -89 -54 -123 -65 -17 -5 -19 -8 -7 -8 36 -2 127 51 166 95 37 42 61 98 47 111 -3 4 -6 -2 -6 -12z"/>
 <path d="M1639 663 c-2 -15 2 -48 12 -85 9 -35 12 -37 42 -34 18 3 38 5 45 5 27 2 5 25 -23 26 -26 0 -31 5 -43 48 -11 41 -30 62 -33 40z"/>
 <path d="M1510 643 c-50 -18 -68 -84 -32 -116 28 -26 88 -22 117 8 25 24 32 49 17 59 -5 3 -34 -1 -65 -8 -48 -11 -57 -11 -57 0 0 7 11 21 25 30 22 14 30 15 50 4 31 -17 47 -4 21 16 -20 14 -49 17 -76 7z m80 -82 c0 -17 -29 -32 -56 -29 -37 4 -42 26 -7 31 51 7 63 7 63 -2z"/>
 <path d="M1394 613 c-8 -3 -7 -21 4 -66 17 -72 19 -74 33 -60 8 8 7 27 -2 67 -13 60 -17 66 -35 59z"/>
 <path d="M395 319 c-215 -160 -391 -297 -393 -305 -4 -16 19 -17 58 -3 19 6 15 7 -15 3 -26 -4 -37 -2 -30 4 21 20 772 579 786 585 11 4 11 6 -1 6 -9 1 -191 -130 -405 -290z"/>
 <path d="M1256 582 c-3 -5 1 -35 9 -68 20 -83 19 -94 -7 -94 -27 0 -55 -16 -46 -25 9 -10 176 29 175 40 -2 10 -4 10 -46 4 -22 -4 -26 1 -33 36 -22 105 -36 133 -52 107z"/>
 <path d="M2180 470 c-20 -6 -21 -8 -5 -8 11 0 31 4 45 8 20 6 21 8 5 8 -11 0 -31 -4 -45 -8z"/>
 <path d="M1430 460 c-12 -7 -12 -12 -3 -21 10 -10 14 -9 19 5 8 22 2 27 -16 16z"/>
 <path d="M2085 450 c-27 -7 -27 -8 -5 -8 14 0 36 4 50 8 20 6 21 8 5 8 -11 0 -33 -4 -50 -8z"/>
 <path d="M1990 430 c-20 -6 -21 -8 -5 -8 11 0 31 4 45 8 20 6 21 8 5 8 -11 0 -31 -4 -45 -8z"/>
 <path d="M1875 405 c-27 -7 -41 -13 -30 -13 11 0 43 6 70 13 28 7 41 13 30 13 -11 0 -42 -6 -70 -13z"/>
 <path d="M1712 373 c-40 -9 -71 -18 -68 -20 4 -5 168 26 175 33 8 7 -33 2 -107 -13z"/>
 <path d="M1522 333 c-40 -9 -71 -18 -68 -20 4 -5 168 26 175 33 8 7 -33 2 -107 -13z"/>
 <path d="M1380 300 c-20 -6 -21 -8 -5 -8 11 0 31 4 45 8 20 6 21 8 5 8 -11 0 -31 -4 -45 -8z"/>
 <path d="M1215 265 c-27 -7 -41 -13 -30 -13 11 0 43 6 70 13 28 7 41 13 30 13 -11 0 -42 -6 -70 -13z"/>
 <path d="M1007 222 c-64 -14 -115 -27 -113 -30 5 -4 258 47 265 54 9 8 -38 1 -152 -24z"/>
 <path d="M702 157 c-78 -16 -140 -32 -138 -35 5 -4 308 57 315 64 10 9 -41 0 -177 -29z"/>
 <path d="M372 87 c-78 -16 -140 -32 -138 -35 5 -4 308 57 315 64 10 9 -41 0 -177 -29z"/>
 <path d="M135 35 c-27 -7 -41 -13 -30 -13 11 0 43 6 70 13 28 7 41 13 30 13 -11 0 -42 -6 -70 -13z"/>
 </g>
<g id="layer105" fill="#dff4f9" stroke="none">
 <path d="M2454 869 c15 -12 37 -36 47 -53 10 -17 19 -26 19 -19 0 16 -48 72 -74 84 -13 6 -10 2 8 -12z"/>
 <path d="M1759 681 c-13 -10 -21 -23 -16 -27 4 -4 17 3 28 15 14 14 30 21 47 19 43 -5 37 -27 -13 -48 -38 -16 -46 -24 -43 -42 4 -32 65 -37 99 -9 14 12 18 20 11 21 -7 0 -20 -7 -29 -16 -17 -16 -54 -16 -60 1 -2 6 17 21 43 33 36 18 45 27 42 45 -4 31 -74 37 -109 8z"/>
 <path d="M1646 662 c-9 -15 14 -122 26 -122 4 0 8 4 8 10 0 5 13 7 30 4 20 -5 30 -3 30 6 0 7 -7 10 -16 6 -21 -8 -54 21 -55 48 -1 34 -14 62 -23 48z"/>
 <path d="M2487 609 c-15 -22 -48 -53 -74 -69 -26 -17 -42 -30 -36 -30 28 0 156 121 142 134 -2 2 -16 -14 -32 -35z"/>
 <path d="M1481 621 c-27 -27 -27 -65 0 -92 17 -17 29 -20 61 -16 48 6 68 22 68 55 0 23 -2 24 -42 18 -24 -4 -53 -9 -65 -13 -29 -7 -30 10 -2 38 19 19 36 21 76 8 6 -2 13 1 15 6 1 6 -18 11 -44 13 -37 2 -51 -1 -67 -17z m109 -56 c0 -8 -11 -22 -25 -31 -21 -14 -31 -15 -50 -6 -37 17 -30 29 23 40 26 5 48 10 50 11 1 0 2 -6 2 -14z"/>
 <path d="M393 318 c-216 -161 -390 -294 -388 -296 1 -2 155 110 341 249 187 139 365 272 398 296 32 24 54 43 49 43 -5 0 -185 -132 -400 -292z"/>
 <path d="M1394 588 c3 -13 9 -40 12 -60 4 -24 12 -38 21 -38 9 0 12 7 9 18 -3 9 -10 36 -16 60 -6 23 -16 42 -22 42 -6 0 -8 -9 -4 -22z"/>
 <path d="M1264 584 c-9 -4 -6 -25 7 -77 10 -40 19 -75 19 -78 0 -4 -18 -9 -40 -13 -23 -3 -38 -10 -35 -15 4 -8 31 -4 153 24 12 3 22 9 22 14 0 6 -13 6 -32 0 -18 -5 -36 -9 -39 -9 -3 0 -13 36 -23 80 -9 44 -18 80 -19 79 -1 0 -7 -3 -13 -5z"/>
 <path d="M1420 450 c0 -5 7 -10 15 -10 8 0 15 5 15 10 0 6 -7 10 -15 10 -8 0 -15 -4 -15 -10z"/>
 </g>

</svg>