<!DOCTYPE svg PUBLIC "-//W3C//DTD SVG 20010904//EN" "http://www.w3.org/TR/2001/REC-SVG-20010904/DTD/svg10.dtd">
<svg version="1.0" xmlns="http://www.w3.org/2000/svg" width="351px" height="109px" viewBox="0 0 3510 1090" preserveAspectRatio="xMidYMid meet">
<g id="layer101" fill="#00485f" stroke="none">
 <path d="M2540 909 c-454 -98 -1173 -253 -1599 -344 -425 -92 -784 -171 -798 -176 -13 -5 -31 -15 -39 -23 -8 -8 -24 -23 -36 -33 -149 -120 -23 -333 198 -333 48 0 284 49 1509 310 863 184 1419 302 1560 332 83 17 156 36 163 41 19 15 15 41 -38 221 -47 159 -60 187 -85 185 -5 -1 -381 -82 -835 -180z"/>
 </g>
<g id="layer102" fill="#006a8a" stroke="none">
 <path d="M2540 909 c-454 -98 -1172 -253 -1597 -344 -424 -91 -786 -171 -803 -177 -19 -6 -29 -15 -26 -24 3 -8 0 -11 -8 -8 -7 3 -21 -6 -32 -18 l-19 -23 25 20 25 20 -18 -22 c-12 -13 -25 -19 -35 -16 -12 5 -14 2 -9 -11 5 -11 3 -15 -5 -10 -8 5 -9 2 -5 -9 4 -10 2 -16 -5 -14 -6 1 -15 -11 -20 -28 -9 -32 -2 -99 10 -91 4 2 8 -8 7 -22 0 -19 5 -27 16 -26 9 1 16 -6 15 -15 -1 -10 7 -16 19 -16 13 0 19 -6 17 -17 -4 -23 70 -50 153 -55 74 -5 -12 -22 1530 307 209 45 612 130 895 191 830 177 825 176 823 188 -2 6 2 11 7 11 17 0 12 27 -36 189 -25 86 -47 164 -50 173 -3 11 -11 15 -21 11 -11 -4 -14 -2 -9 5 4 7 2 12 -6 11 -7 -1 -384 -82 -838 -180z"/>
 </g>
<g id="layer103" fill="#618ba1" stroke="none">
 <path d="M2540 909 c-454 -98 -1172 -253 -1597 -344 -424 -91 -786 -170 -802 -176 -17 -6 -31 -15 -31 -19 0 -5 16 -2 36 6 30 13 1393 309 2809 610 357 76 472 104 425 102 -8 0 -386 -81 -840 -179z"/>
 <path d="M3402 1065 c25 -98 103 -354 106 -346 4 11 -95 351 -104 360 -4 3 -5 -3 -2 -14z"/>
 <path d="M2247 729 c-53 -14 -80 -59 -37 -59 11 0 20 6 20 14 0 17 49 31 63 17 6 -6 -3 -16 -28 -28 -48 -23 -64 -46 -46 -67 24 -28 112 -14 125 21 8 21 -23 28 -38 8 -7 -10 -22 -15 -37 -13 -22 3 -21 5 17 25 43 23 57 42 45 61 -11 18 -55 29 -84 21z"/>
 <path d="M2132 701 c-10 -6 -9 -17 3 -50 19 -53 19 -48 -6 -61 -27 -15 -45 1 -61 51 -8 28 -17 39 -31 39 -14 0 -18 -5 -14 -17 3 -10 11 -39 18 -66 l13 -47 51 6 c27 4 58 14 68 23 16 16 16 20 2 68 -17 56 -24 66 -43 54z"/>
 <path d="M2960 574 c-2668 -571 -2642 -566 -2716 -561 -52 3 -84 11 -117 29 -26 15 -43 20 -40 13 8 -22 84 -47 158 -52 74 -5 -12 -22 1530 307 892 190 1420 303 1560 332 83 17 154 35 160 40 5 4 7 8 5 7 -3 0 -246 -52 -540 -115z"/>
 <path d="M1956 661 c-7 -11 33 -131 44 -131 19 0 20 23 4 80 -15 55 -34 75 -48 51z"/>
 <path d="M1833 640 c-12 -5 -27 -18 -33 -30 -16 -30 16 -40 36 -11 9 12 26 21 40 21 34 0 30 -12 -14 -35 -73 -39 -43 -97 38 -75 22 6 40 12 40 15 0 2 3 10 6 19 4 12 0 16 -15 16 -12 0 -21 -4 -21 -9 0 -13 -37 -24 -51 -15 -8 4 6 16 34 31 50 25 57 41 31 67 -17 17 -56 20 -91 6z"/>
 <path d="M1730 608 c0 -17 30 -110 39 -120 3 -4 12 -3 20 1 19 12 -18 125 -42 129 -9 2 -17 -3 -17 -10z"/>
 <path d="M1586 579 c-31 -25 -33 -57 -5 -93 45 -57 162 -18 145 49 -16 63 -87 85 -140 44z m94 -28 c16 -31 12 -51 -15 -63 -21 -9 -28 -8 -45 7 -19 18 -27 55 -13 68 14 15 63 7 73 -12z"/>
 <path d="M1428 548 c-16 -13 -48 -182 -36 -193 3 -3 12 -3 21 0 11 5 18 29 24 86 l8 79 55 -65 c49 -56 90 -82 90 -56 0 5 -33 44 -72 86 -64 67 -75 75 -90 63z"/>
 <path d="M2000 506 c0 -10 9 -16 21 -16 24 0 21 23 -4 28 -10 2 -17 -3 -17 -12z"/>
 <path d="M1776 455 c4 -8 12 -15 20 -15 8 0 14 7 14 15 0 8 -9 15 -20 15 -13 0 -18 -5 -14 -15z"/>
 <path d="M63 329 c-18 -16 -33 -33 -33 -36 0 -4 16 8 35 27 32 31 39 40 33 40 -2 0 -18 -14 -35 -31z"/>
 <path d="M16 272 c-3 -5 -8 -29 -10 -53 -5 -43 -4 -40 14 29 8 31 7 41 -4 24z"/>
 <path d="M20 128 c0 -9 5 -20 11 -23 17 -11 18 -2 3 19 -12 17 -14 17 -14 4z"/>
 </g>
<g id="layer104" fill="#94b7c8" stroke="none">
 <path d="M3340 1080 c-20 -6 -21 -8 -5 -8 11 0 29 3 40 8 25 11 -1 11 -35 0z"/>
 <path d="M3200 1050 c-20 -6 -21 -8 -5 -8 11 0 31 4 45 8 20 6 21 8 5 8 -11 0 -31 -4 -45 -8z"/>
 <path d="M3060 1020 c-20 -6 -21 -8 -5 -8 11 0 31 4 45 8 20 6 21 8 5 8 -11 0 -31 -4 -45 -8z"/>
 <path d="M3421 1010 c0 -8 4 -24 9 -35 5 -13 9 -14 9 -5 0 8 -4 24 -9 35 -5 13 -9 14 -9 5z"/>
 <path d="M2920 990 c-20 -6 -21 -8 -5 -8 11 0 31 4 45 8 20 6 21 8 5 8 -11 0 -31 -4 -45 -8z"/>
 <path d="M2805 965 c-27 -7 -41 -13 -30 -13 11 0 43 6 70 13 28 7 41 13 30 13 -11 0 -42 -6 -70 -13z"/>
 <path d="M3440 944 c1 -17 69 -239 69 -225 1 7 -13 61 -30 120 -29 99 -39 128 -39 105z"/>
 <path d="M2550 910 c-20 -6 -21 -8 -5 -8 11 0 31 4 45 8 20 6 21 8 5 8 -11 0 -31 -4 -45 -8z"/>
 <path d="M2385 875 c-27 -7 -41 -13 -30 -13 11 0 43 6 70 13 28 7 41 13 30 13 -11 0 -42 -6 -70 -13z"/>
 <path d="M2270 850 c-20 -6 -21 -8 -5 -8 11 0 31 4 45 8 20 6 21 8 5 8 -11 0 -31 -4 -45 -8z"/>
 <path d="M2130 820 c-20 -6 -21 -8 -5 -8 11 0 31 4 45 8 20 6 21 8 5 8 -11 0 -31 -4 -45 -8z"/>
 <path d="M1990 790 c-20 -6 -21 -8 -5 -8 11 0 31 4 45 8 20 6 21 8 5 8 -11 0 -31 -4 -45 -8z"/>
 <path d="M1850 760 c-20 -6 -21 -8 -5 -8 11 0 31 4 45 8 20 6 21 8 5 8 -11 0 -31 -4 -45 -8z"/>
 <path d="M1710 730 c-20 -6 -21 -8 -5 -8 11 0 31 4 45 8 20 6 21 8 5 8 -11 0 -31 -4 -45 -8z"/>
 <path d="M2210 710 c-11 -11 -20 -24 -20 -30 0 -17 25 -11 43 10 18 21 52 27 62 10 3 -5 -12 -18 -34 -29 -46 -24 -53 -33 -45 -55 13 -34 95 -30 118 7 17 27 0 30 -32 7 -27 -20 -52 -21 -52 -1 0 4 18 15 40 25 63 28 50 76 -22 76 -25 0 -45 -7 -58 -20z"/>
 <path d="M1620 710 c-20 -6 -21 -8 -5 -8 11 0 31 4 45 8 20 6 21 8 5 8 -11 0 -31 -4 -45 -8z"/>
 <path d="M2133 678 c20 -89 20 -86 -1 -92 -32 -10 -51 4 -64 46 -10 36 -31 58 -43 46 -9 -8 32 -123 43 -122 7 1 28 2 47 3 20 0 44 10 54 20 19 19 19 22 3 70 -9 30 -22 51 -30 51 -10 0 -13 -7 -9 -22z"/>
 <path d="M1480 680 c-20 -6 -21 -8 -5 -8 11 0 31 4 45 8 20 6 21 8 5 8 -11 0 -31 -4 -45 -8z"/>
 <path d="M1958 665 c-11 -11 29 -120 46 -123 20 -4 19 9 -3 72 -16 47 -30 63 -43 51z"/>
 <path d="M1340 650 c-20 -6 -21 -8 -5 -8 11 0 31 4 45 8 20 6 21 8 5 8 -11 0 -31 -4 -45 -8z"/>
 <path d="M3330 650 c-20 -6 -21 -8 -5 -8 11 0 31 4 45 8 20 6 21 8 5 8 -11 0 -31 -4 -45 -8z"/>
 <path d="M1833 635 c-22 -9 -33 -21 -33 -34 0 -23 25 -19 34 5 6 15 66 20 66 5 0 -5 -17 -18 -37 -28 -29 -14 -38 -24 -38 -43 0 -22 5 -25 38 -28 38 -3 87 18 87 38 0 15 -26 12 -40 -5 -13 -16 -60 -21 -60 -7 0 5 18 17 39 27 50 22 59 44 31 67 -26 21 -44 22 -87 3z"/>
 <path d="M3190 620 c-20 -6 -21 -8 -5 -8 11 0 31 4 45 8 20 6 21 8 5 8 -11 0 -31 -4 -45 -8z"/>
 <path d="M1730 614 c0 -24 37 -117 48 -121 22 -9 22 0 3 62 -12 37 -25 61 -35 63 -9 2 -16 0 -16 -4z"/>
 <path d="M1060 590 c-20 -6 -21 -8 -5 -8 11 0 31 4 45 8 20 6 21 8 5 8 -11 0 -31 -4 -45 -8z"/>
 <path d="M1598 585 c-32 -18 -42 -44 -29 -78 20 -52 95 -64 137 -22 30 30 26 58 -12 93 -29 25 -57 27 -96 7z m80 -27 c17 -17 15 -53 -3 -68 -22 -19 -64 -4 -71 25 -3 14 -4 32 0 40 7 18 57 20 74 3z"/>
 <path d="M920 560 c-20 -6 -21 -8 -5 -8 11 0 31 4 45 8 20 6 21 8 5 8 -11 0 -31 -4 -45 -8z"/>
 <path d="M2860 550 c-20 -6 -21 -8 -5 -8 11 0 31 4 45 8 20 6 21 8 5 8 -11 0 -31 -4 -45 -8z"/>
 <path d="M1415 528 c-12 -53 -25 -161 -21 -166 3 -2 12 -2 19 1 10 4 17 30 22 83 l7 77 63 -69 c43 -46 66 -66 73 -59 14 13 -113 155 -139 155 -11 0 -21 -9 -24 -22z"/>
 <path d="M2695 515 c-27 -7 -41 -13 -30 -13 11 0 43 6 70 13 28 7 41 13 30 13 -11 0 -42 -6 -70 -13z"/>
 <path d="M2000 506 c0 -10 9 -16 21 -16 24 0 21 23 -4 28 -10 2 -17 -3 -17 -12z"/>
 <path d="M2580 490 c-20 -6 -21 -8 -5 -8 11 0 31 4 45 8 20 6 21 8 5 8 -11 0 -31 -4 -45 -8z"/>
 <path d="M500 470 c-20 -6 -21 -8 -5 -8 11 0 31 4 45 8 20 6 21 8 5 8 -11 0 -31 -4 -45 -8z"/>
 <path d="M1780 455 c0 -8 7 -15 15 -15 8 0 15 7 15 15 0 8 -7 15 -15 15 -8 0 -15 -7 -15 -15z"/>
 <path d="M2390 450 c-20 -6 -21 -8 -5 -8 11 0 31 4 45 8 20 6 21 8 5 8 -11 0 -31 -4 -45 -8z"/>
 <path d="M360 440 c-20 -6 -21 -8 -5 -8 11 0 31 4 45 8 20 6 21 8 5 8 -11 0 -31 -4 -45 -8z"/>
 <path d="M2300 430 c-20 -6 -21 -8 -5 -8 11 0 31 4 45 8 20 6 21 8 5 8 -11 0 -31 -4 -45 -8z"/>
 <path d="M220 410 c-20 -6 -21 -8 -5 -8 11 0 31 4 45 8 20 6 21 8 5 8 -11 0 -31 -4 -45 -8z"/>
 <path d="M138 388 c-16 -5 -28 -14 -28 -20 0 -7 4 -7 13 -1 6 6 26 15 42 21 17 6 23 10 15 10 -8 0 -27 -4 -42 -10z"/>
 <path d="M2085 385 c-27 -7 -41 -13 -30 -13 11 0 43 6 70 13 28 7 41 13 30 13 -11 0 -42 -6 -70 -13z"/>
 <path d="M1830 330 c-20 -6 -21 -8 -5 -8 11 0 31 4 45 8 20 6 21 8 5 8 -11 0 -31 -4 -45 -8z"/>
 <path d="M1640 290 c-20 -6 -21 -8 -5 -8 11 0 31 4 45 8 20 6 21 8 5 8 -11 0 -31 -4 -45 -8z"/>
 <path d="M1500 260 c-20 -6 -21 -8 -5 -8 11 0 31 4 45 8 20 6 21 8 5 8 -11 0 -31 -4 -45 -8z"/>
 <path d="M1360 230 c-20 -6 -21 -8 -5 -8 11 0 31 4 45 8 20 6 21 8 5 8 -11 0 -31 -4 -45 -8z"/>
 <path d="M1195 195 c-27 -7 -41 -13 -30 -13 11 0 43 6 70 13 28 7 41 13 30 13 -11 0 -42 -6 -70 -13z"/>
 <path d="M1055 165 c-27 -7 -41 -13 -30 -13 11 0 43 6 70 13 28 7 41 13 30 13 -11 0 -42 -6 -70 -13z"/>
 <path d="M750 100 c-20 -6 -21 -8 -5 -8 11 0 31 4 45 8 20 6 21 8 5 8 -11 0 -31 -4 -45 -8z"/>
 <path d="M90 51 c0 -8 50 -34 56 -29 1 2 -11 11 -27 20 -16 9 -29 14 -29 9z"/>
 <path d="M213 3 c9 -2 25 -2 35 0 9 3 1 5 -18 5 -19 0 -27 -2 -17 -5z"/>
 <path d="M293 3 c9 -2 25 -2 35 0 9 3 1 5 -18 5 -19 0 -27 -2 -17 -5z"/>
 </g>
<g id="layer105" fill="#dff6fa" stroke="none">
 <path d="M2232 720 c-23 -10 -39 -36 -28 -47 4 -4 13 3 22 15 10 14 26 22 45 22 42 0 37 -24 -11 -45 -75 -34 -33 -93 43 -61 20 8 37 20 37 25 0 16 -19 13 -36 -4 -9 -8 -24 -15 -34 -15 -36 0 -31 19 10 40 49 25 61 48 35 66 -21 16 -50 17 -83 4z"/>
 <path d="M2135 674 c5 -16 9 -42 9 -59 1 -24 -4 -31 -22 -33 -31 -5 -46 10 -61 58 -11 37 -31 55 -31 29 0 -25 32 -119 41 -119 5 0 9 5 9 11 0 6 9 8 21 4 31 -10 79 13 78 39 -1 33 -24 89 -39 94 -10 4 -11 -2 -5 -24z"/>
 <path d="M1960 654 c0 -27 36 -114 48 -114 14 0 13 5 -13 79 -10 31 -35 55 -35 35z"/>
 <path d="M1817 622 c-21 -23 -22 -32 -2 -32 8 0 15 4 15 10 0 15 39 32 61 25 25 -8 17 -21 -32 -46 -42 -21 -48 -43 -18 -62 21 -13 89 0 96 19 8 22 -7 32 -18 11 -11 -18 -69 -25 -69 -7 0 5 18 19 41 30 31 16 40 26 37 43 -2 18 -10 22 -49 25 -34 2 -49 -2 -62 -16z"/>
 <path d="M1743 613 c-8 -3 -6 -21 9 -64 19 -56 39 -79 37 -41 -1 33 -34 109 -46 105z"/>
 <path d="M1587 572 c-21 -23 -22 -62 -3 -88 17 -23 94 -27 119 -5 21 17 22 60 1 89 -20 29 -93 31 -117 4z m92 -18 c25 -32 26 -38 5 -59 -24 -24 -66 -15 -84 18 -14 27 -14 29 9 48 31 25 46 24 70 -7z"/>
 <path d="M1410 478 c-6 -40 -13 -83 -16 -95 -3 -15 0 -23 10 -23 14 0 18 16 32 113 3 26 9 47 13 46 3 0 28 -27 55 -60 29 -35 57 -59 68 -59 15 0 4 18 -49 75 -37 41 -75 74 -85 75 -13 0 -19 -16 -28 -72z"/>
 <path d="M2007 514 c-8 -8 1 -24 14 -24 5 0 9 7 9 15 0 15 -12 20 -23 9z"/>
 <path d="M1782 459 c2 -6 8 -10 13 -10 5 0 11 4 13 10 2 6 -4 11 -13 11 -9 0 -15 -5 -13 -11z"/>
 </g>

</svg>