<!DOCTYPE svg PUBLIC "-//W3C//DTD SVG 20010904//EN" "http://www.w3.org/TR/2001/REC-SVG-20010904/DTD/svg10.dtd">
<svg version="1.0" xmlns="http://www.w3.org/2000/svg" width="97px" height="56px" viewBox="0 0 970 560" preserveAspectRatio="xMidYMid meet">
<g id="layer101" fill="#089121" stroke="none">
 <path d="M300 524 c-322 -70 -300 -64 -300 -88 0 -11 13 -43 29 -71 141 -244 496 -395 840 -355 52 6 97 13 100 16 4 3 -24 92 -60 197 l-65 190 -76 2 c-93 1 -169 35 -226 101 -27 30 -47 44 -63 43 -13 -1 -94 -16 -179 -35z"/>
 </g>
<g id="layer102" fill="#46ae62" stroke="none">
 <path d="M300 524 c-322 -70 -300 -64 -300 -88 0 -11 13 -43 29 -71 141 -244 496 -395 840 -355 52 6 97 13 100 16 4 3 -24 92 -60 197 l-65 190 -76 2 c-93 1 -169 35 -226 101 -27 30 -47 44 -63 43 -13 -1 -94 -16 -179 -35z m232 -18 c56 -65 131 -98 226 -102 l76 -3 63 -182 c35 -100 63 -183 61 -185 -2 -2 -46 -8 -97 -14 -337 -38 -700 123 -828 367 -15 28 -25 54 -22 57 6 6 441 103 468 105 7 1 31 -19 53 -43z"/>
 <path d="M463 340 c-34 -14 -43 -40 -28 -84 18 -51 37 -69 74 -69 40 0 61 19 61 57 0 32 -33 96 -49 96 -5 0 -15 2 -23 4 -7 3 -23 1 -35 -4z m50 -38 c22 -24 33 -77 18 -86 -21 -14 -50 5 -61 40 -19 58 7 86 43 46z"/>
 </g>
<g id="layer103" fill="#abc7d6" stroke="none">
 <path d="M518 530 c20 -34 103 -100 125 -100 6 0 -9 13 -34 29 -25 15 -60 46 -79 67 l-33 39 21 -35z"/>
 <path d="M0 429 c0 -22 54 -110 100 -162 23 -26 70 -67 104 -91 60 -43 185 -111 191 -104 2 2 -35 23 -83 48 -107 54 -243 183 -285 269 -15 30 -27 48 -27 40z"/>
 <path d="M821 414 c9 -3 22 -23 28 -45 7 -23 14 -39 17 -37 2 3 -2 22 -9 44 -9 25 -21 40 -33 41 -13 1 -14 0 -3 -3z"/>
 <path d="M447 322 c-23 -25 -21 -53 6 -93 27 -40 68 -50 98 -23 23 21 24 45 4 84 -26 50 -78 65 -108 32z m73 -17 c7 -9 13 -32 14 -53 1 -33 -2 -37 -24 -37 -19 0 -29 9 -43 36 -9 20 -15 44 -11 53 8 20 47 21 64 1z"/>
 <path d="M892 250 c3 -8 15 -46 28 -83 12 -38 24 -66 26 -64 5 5 -43 148 -53 156 -3 3 -4 -1 -1 -9z"/>
 <path d="M485 40 c11 -5 27 -9 35 -9 9 0 8 4 -5 9 -11 5 -27 9 -35 9 -9 0 -8 -4 5 -9z"/>
 <path d="M738 3 c18 -2 45 -2 60 0 15 2 0 4 -33 4 -33 0 -45 -2 -27 -4z"/>
 </g>
<g id="layer104" fill="#dff4f9" stroke="none">
 <path d="M545 502 c17 -19 39 -38 50 -44 11 -6 16 -7 10 -2 -5 5 -28 25 -50 44 l-40 35 30 -33z"/>
 <path d="M0 425 c0 -20 58 -111 103 -160 24 -28 66 -65 93 -83 31 -21 36 -23 14 -6 -65 52 -147 144 -178 202 -17 31 -32 53 -32 47z"/>
 <path d="M449 321 c-21 -17 -22 -21 -11 -60 15 -48 51 -76 87 -67 35 9 46 35 34 79 -17 62 -67 83 -110 48z m87 -46 c15 -36 11 -60 -12 -69 -23 -9 -40 3 -57 40 -21 44 -21 61 0 73 25 13 52 -4 69 -44z"/>
 <path d="M738 3 c18 -2 45 -2 60 0 15 2 0 4 -33 4 -33 0 -45 -2 -27 -4z"/>
 </g>

</svg>