<!DOCTYPE svg PUBLIC "-//W3C//DTD SVG 20010904//EN" "http://www.w3.org/TR/2001/REC-SVG-20010904/DTD/svg10.dtd">
<svg version="1.0" xmlns="http://www.w3.org/2000/svg" width="65px" height="51px" viewBox="0 0 650 510" preserveAspectRatio="xMidYMid meet">
<g id="layer101" fill="#010101" stroke="none">
 <path d="M157 325 c-86 -102 -157 -191 -157 -198 0 -7 14 -21 30 -30 17 -10 40 -36 53 -58 14 -25 29 -39 42 -39 11 0 133 24 270 54 l250 53 -2 33 c-2 56 -67 170 -134 238 -56 56 -162 132 -186 132 -5 0 -80 -83 -166 -185z"/>
 </g>
<g id="layer102" fill="#424447" stroke="none">
 <path d="M157 325 c-86 -102 -157 -191 -157 -198 0 -7 14 -21 30 -30 17 -10 40 -36 53 -58 14 -25 29 -39 42 -39 11 0 133 24 270 54 l250 53 -2 33 c-2 56 -67 170 -134 238 -56 56 -162 132 -186 132 -5 0 -80 -83 -166 -185z m294 89 c68 -56 115 -115 150 -189 54 -113 70 -101 -211 -161 -135 -29 -252 -53 -260 -54 -9 0 -24 16 -35 36 -10 19 -33 45 -49 56 -17 12 -33 23 -34 24 -2 1 67 86 153 188 l157 186 39 -22 c21 -11 61 -40 90 -64z"/>
 <path d="M329 291 c-45 -37 -15 -142 43 -149 36 -4 78 33 78 69 0 82 -66 125 -121 80z m68 -23 c15 -19 24 -64 17 -82 -9 -22 -51 -20 -64 3 -11 22 -14 74 -3 84 11 11 40 8 50 -5z"/>
 <path d="M214 265 c-3 -8 -1 -35 4 -61 10 -45 10 -46 -14 -41 -34 6 -31 -19 4 -31 15 -5 36 -13 46 -18 20 -8 20 -4 -6 119 -10 47 -24 60 -34 32z"/>
 </g>
<g id="layer103" fill="#727176" stroke="none">
 <path d="M157 325 c-86 -102 -157 -191 -157 -198 0 -8 12 -20 27 -28 14 -8 39 -34 55 -58 30 -48 38 -49 14 -2 -8 15 -31 42 -52 60 -32 29 -34 34 -22 49 27 32 125 147 212 250 l87 102 52 -27 c112 -60 242 -223 263 -329 6 -29 4 -31 -43 -41 l-48 -12 45 6 c60 7 66 14 51 65 -22 75 -71 154 -133 217 -55 55 -162 131 -185 131 -5 0 -80 -83 -166 -185z"/>
 <path d="M350 303 c-46 -17 -55 -98 -15 -138 31 -32 59 -32 91 1 22 21 25 31 19 62 -11 61 -49 91 -95 75z m37 -21 c14 -9 33 -56 33 -82 0 -11 -9 -24 -21 -30 -42 -23 -83 56 -52 100 15 22 22 24 40 12z"/>
 <path d="M214 240 c3 -16 9 -43 12 -59 6 -27 4 -28 -20 -24 -14 3 -26 1 -26 -3 0 -12 79 -44 84 -35 3 4 -3 39 -11 79 -11 50 -21 72 -31 72 -11 0 -13 -7 -8 -30z"/>
 <path d="M430 70 c-20 -6 -21 -8 -5 -8 11 0 31 4 45 8 20 6 21 8 5 8 -11 0 -31 -4 -45 -8z"/>
 <path d="M265 35 c-27 -7 -41 -13 -30 -13 11 0 43 6 70 13 28 7 41 13 30 13 -11 0 -42 -6 -70 -13z"/>
 <path d="M150 10 c-20 -6 -21 -8 -5 -8 11 0 31 4 45 8 20 6 21 8 5 8 -11 0 -31 -4 -45 -8z"/>
 </g>
<g id="layer104" fill="#8c939b" stroke="none">
 <path d="M157 325 c-86 -102 -157 -191 -157 -198 0 -8 12 -20 27 -28 14 -8 39 -34 55 -58 30 -48 38 -49 13 -1 -8 15 -31 42 -51 58 -33 27 -35 32 -23 50 36 50 295 351 303 351 5 1 38 -18 73 -40 78 -51 159 -138 198 -212 16 -31 31 -54 33 -52 11 11 -67 131 -120 184 -55 55 -162 131 -185 131 -5 0 -80 -83 -166 -185z"/>
 <path d="M347 298 c-31 -11 -42 -42 -33 -93 13 -68 94 -84 123 -24 16 33 0 93 -30 114 -24 17 -22 17 -60 3z m53 -23 c20 -24 24 -89 7 -104 -25 -20 -55 -4 -67 37 -13 48 -13 48 6 66 19 20 38 20 54 1z"/>
 <path d="M214 248 c3 -13 9 -40 12 -61 7 -37 6 -38 -20 -31 -14 3 -26 3 -26 0 0 -6 66 -36 80 -36 4 0 0 34 -8 75 -11 50 -21 75 -30 75 -10 0 -12 -7 -8 -22z"/>
 </g>
<g id="layer105" fill="#aca59a" stroke="none">
 <path d="M157 325 c-86 -102 -157 -191 -157 -198 0 -8 12 -20 27 -28 14 -8 39 -34 55 -58 31 -50 39 -44 9 6 -11 17 -34 42 -50 54 -17 13 -31 26 -31 30 0 11 302 364 314 367 20 5 134 -78 190 -139 31 -33 70 -86 86 -117 16 -32 29 -53 30 -48 1 25 -69 131 -122 185 -55 55 -162 131 -185 131 -5 0 -80 -83 -166 -185z"/>
 <path d="M327 282 c-21 -23 -21 -52 -3 -97 13 -29 20 -35 46 -35 53 0 70 15 70 63 0 57 -22 87 -64 87 -19 0 -40 -8 -49 -18z m73 -7 c20 -24 24 -89 7 -104 -26 -21 -50 -9 -66 32 -11 29 -11 43 -3 62 13 28 43 33 62 10z"/>
 <path d="M216 243 c3 -16 10 -43 14 -61 9 -33 8 -33 -21 -27 -16 4 -29 4 -29 1 0 -6 67 -36 79 -36 4 0 0 34 -8 75 -10 47 -20 75 -28 75 -9 0 -11 -8 -7 -27z"/>
 </g>
<g id="layer106" fill="#bfbfc3" stroke="none">
 <path d="M156 324 c-87 -102 -156 -187 -154 -189 2 -2 73 80 158 181 85 101 159 184 163 184 5 0 18 -5 30 -11 21 -10 21 -10 3 5 -11 9 -25 16 -31 16 -6 0 -82 -84 -169 -186z"/>
 <path d="M400 463 c32 -22 161 -150 184 -183 10 -14 9 -10 -3 10 -27 46 -131 150 -173 173 -29 16 -30 16 -8 0z"/>
 <path d="M327 282 c-10 -10 -17 -28 -17 -40 0 -28 18 -75 33 -84 20 -13 65 -9 81 8 20 20 21 83 0 112 -19 28 -74 30 -97 4z m78 -16 c33 -50 0 -127 -42 -100 -25 15 -40 89 -23 109 18 22 47 18 65 -9z"/>
 <path d="M214 254 c3 -11 10 -39 15 -62 9 -43 9 -44 -15 -38 -13 4 -24 3 -24 -2 0 -8 61 -34 68 -28 9 9 -25 140 -37 144 -9 3 -11 -2 -7 -14z"/>
 <path d="M28 98 c18 -13 41 -36 52 -53 11 -17 20 -24 20 -17 0 16 -76 92 -92 92 -7 0 2 -10 20 -22z"/>
 </g>
<g id="layer107" fill="#edeaf0" stroke="none">
 <path d="M400 467 c0 -2 19 -19 43 -37 23 -19 36 -26 28 -17 -15 19 -71 61 -71 54z"/>
 <path d="M220 400 c-29 -33 -50 -60 -47 -60 3 0 28 27 57 60 29 33 50 60 47 60 -3 0 -28 -27 -57 -60z"/>
 <path d="M110 270 c-29 -33 -50 -60 -47 -60 3 0 28 27 57 60 29 33 50 60 47 60 -3 0 -28 -27 -57 -60z"/>
 <path d="M329 279 c-40 -40 -4 -129 51 -129 51 0 76 60 49 113 -23 43 -66 50 -100 16z m69 2 c15 -9 30 -67 24 -93 -5 -24 -50 -35 -68 -16 -21 21 -29 84 -14 103 14 17 38 19 58 6z"/>
 <path d="M225 230 c3 -25 8 -55 12 -68 5 -21 3 -22 -21 -12 -17 6 -26 6 -26 0 0 -6 8 -10 18 -10 10 0 23 -5 30 -12 20 -20 24 -1 11 59 -16 75 -32 104 -24 43z"/>
 <path d="M24 168 l-29 -33 33 29 c30 28 37 36 29 36 -2 0 -16 -15 -33 -32z"/>
 <path d="M1 117 c2 -2 20 -14 39 -26 l35 -23 -30 26 c-17 14 -34 26 -39 26 -5 0 -7 -1 -5 -3z"/>
 </g>

</svg>