<!DOCTYPE svg PUBLIC "-//W3C//DTD SVG 20010904//EN" "http://www.w3.org/TR/2001/REC-SVG-20010904/DTD/svg10.dtd">
<svg version="1.0" xmlns="http://www.w3.org/2000/svg" width="58px" height="46px" viewBox="0 0 580 460" preserveAspectRatio="xMidYMid meet">
<g id="layer101" fill="#b50305" stroke="none">
 <path d="M488 454 c-4 -3 -21 -8 -40 -10 -18 -3 -71 -14 -118 -25 -129 -30 -160 -37 -225 -49 l-60 -12 -16 -61 c-9 -34 -20 -72 -24 -84 -7 -21 4 -28 131 -89 77 -36 164 -79 195 -95 79 -40 99 -38 135 14 69 98 114 233 114 342 0 65 -7 75 -49 75 -21 0 -40 -3 -43 -6z"/>
 </g>
<g id="layer102" fill="#7e2d33" stroke="none">
 <path d="M573 380 c0 -36 2 -50 4 -32 2 17 2 47 0 65 -2 17 -4 3 -4 -33z"/>
 <path d="M310 330 c-21 -21 -27 -50 -10 -50 5 0 15 9 22 20 17 27 68 28 68 1 0 -11 -9 -23 -20 -26 -26 -8 -25 -23 2 -27 12 -2 23 -8 25 -15 6 -17 -35 -27 -53 -12 -12 10 -17 10 -27 0 -9 -10 -8 -16 8 -27 21 -16 68 -12 91 7 17 14 15 116 -3 135 -21 21 -79 18 -103 -6z"/>
 <path d="M192 315 c-30 -7 -56 -16 -59 -18 -11 -12 12 -30 64 -53 40 -18 54 -29 51 -42 -4 -20 -44 -28 -63 -12 -23 19 -39 1 -19 -21 41 -46 139 -1 118 54 -3 9 -23 24 -45 34 -21 9 -39 20 -39 24 0 4 16 10 36 13 19 4 34 12 32 18 -6 17 -17 17 -76 3z"/>
 <path d="M150 115 c14 -8 30 -14 35 -14 6 0 -1 6 -15 14 -14 8 -29 14 -35 14 -5 0 1 -6 15 -14z"/>
 </g>
<g id="layer103" fill="#b64743" stroke="none">
 <path d="M573 380 c0 -36 2 -50 4 -32 2 17 2 47 0 65 -2 17 -4 3 -4 -33z"/>
 <path d="M310 330 c-21 -21 -27 -50 -11 -50 6 0 16 8 23 18 18 25 34 33 52 26 23 -9 20 -41 -4 -49 -26 -8 -25 -23 2 -27 12 -2 23 -9 26 -15 6 -19 -28 -28 -51 -14 -29 19 -50 -5 -22 -25 21 -16 68 -12 92 7 16 14 17 55 1 63 -10 5 -10 7 0 12 18 8 15 38 -6 57 -25 23 -78 21 -102 -3z"/>
 <path d="M192 315 c-30 -7 -56 -16 -59 -18 -10 -11 11 -30 56 -49 64 -28 74 -37 60 -54 -14 -17 -51 -18 -66 -3 -20 20 -36 -1 -17 -22 29 -32 107 -17 120 23 8 25 -29 65 -67 73 -36 8 -48 25 -17 25 37 0 69 12 65 23 -5 16 -16 16 -75 2z"/>
 <path d="M150 115 c14 -8 30 -14 35 -14 6 0 -1 6 -15 14 -14 8 -29 14 -35 14 -5 0 1 -6 15 -14z"/>
 </g>
<g id="layer104" fill="#d16165" stroke="none">
 <path d="M316 329 c-26 -21 -34 -39 -16 -39 6 0 19 9 30 20 24 24 43 25 60 5 10 -12 10 -18 0 -30 -7 -8 -19 -15 -26 -15 -23 0 -16 -18 9 -22 12 -2 22 -10 22 -18 0 -11 -11 -15 -42 -13 -48 2 -55 -8 -18 -25 49 -23 116 26 85 63 -8 10 -8 18 1 34 11 17 10 23 -5 40 -24 27 -66 27 -100 0z"/>
 <path d="M172 308 c-52 -11 -51 -26 4 -52 65 -31 84 -45 78 -60 -8 -21 -40 -26 -63 -10 -15 11 -22 11 -27 3 -7 -13 21 -39 42 -39 27 0 63 20 74 40 15 28 0 46 -60 73 l-45 20 43 9 c23 5 42 13 42 19 0 11 -30 10 -88 -3z"/>
 </g>
<g id="layer105" fill="#e78d78" stroke="none">
 <path d="M316 329 c-26 -21 -34 -39 -16 -39 6 0 19 9 30 20 24 24 43 25 60 5 10 -12 10 -18 0 -30 -7 -8 -19 -15 -26 -15 -8 0 -14 -4 -14 -10 0 -5 9 -10 19 -10 28 0 37 -21 16 -36 -13 -10 -23 -10 -37 -3 -31 16 -45 4 -17 -14 48 -32 122 18 89 58 -10 12 -10 18 -1 29 9 11 9 20 2 34 -20 37 -65 42 -105 11z"/>
 <path d="M173 307 c-61 -14 -55 -31 20 -58 87 -31 77 -91 -10 -64 -28 9 -31 -10 -4 -25 23 -12 76 -3 92 16 23 27 6 58 -46 83 l-50 25 43 9 c44 10 58 28 20 26 -13 -1 -42 -6 -65 -12z"/>
 </g>
<g id="layer106" fill="#bfbfc3" stroke="none">
 <path d="M341 341 c-26 -7 -50 -36 -38 -47 3 -4 15 3 25 16 15 18 24 22 46 16 34 -8 32 -35 -4 -53 -14 -7 -22 -13 -17 -14 4 -1 12 -3 17 -4 6 -1 15 -3 20 -4 6 0 10 -10 10 -20 0 -24 -36 -37 -56 -20 -16 13 -30 6 -19 -10 9 -16 57 -13 83 5 26 18 28 39 6 52 -11 6 -13 11 -5 16 22 14 13 56 -15 66 -14 6 -26 10 -27 9 -1 -1 -13 -4 -26 -8z"/>
 <path d="M183 307 c-23 -7 -45 -15 -49 -19 -4 -4 23 -21 60 -37 67 -31 79 -48 50 -72 -12 -10 -22 -10 -47 -1 -33 12 -43 10 -32 -7 8 -14 70 -14 96 -1 11 6 19 21 19 36 0 21 -9 29 -50 47 -27 11 -50 25 -50 29 0 4 18 11 40 14 22 4 40 10 40 15 0 11 -24 10 -77 -4z"/>
 </g>
<g id="layer107" fill="#f5b1b4" stroke="none">
 <path d="M341 341 c-26 -7 -50 -36 -38 -47 3 -4 15 3 25 16 15 18 24 22 46 16 33 -8 32 -35 -2 -52 -15 -7 -20 -14 -13 -18 6 -4 11 -5 11 -1 0 3 9 1 20 -5 11 -6 17 -16 14 -25 -8 -20 -42 -29 -60 -14 -16 13 -30 6 -19 -10 9 -16 57 -13 83 5 26 18 28 39 6 52 -11 6 -13 11 -5 16 22 14 13 56 -15 66 -14 6 -26 10 -27 9 -1 -1 -13 -4 -26 -8z"/>
 <path d="M183 307 c-23 -7 -45 -15 -49 -19 -4 -4 23 -21 60 -37 67 -31 79 -48 50 -72 -12 -10 -22 -10 -47 -1 -33 12 -43 10 -32 -7 9 -15 78 -14 99 2 11 8 17 23 14 38 -2 19 -14 28 -55 44 -29 11 -53 23 -53 27 0 4 20 10 45 14 25 3 45 10 45 15 0 11 -24 10 -77 -4z"/>
 </g>
<g id="layer108" fill="#f3e4e3" stroke="none">
 <path d="M316 327 c-11 -8 -17 -19 -15 -25 2 -6 14 0 26 13 23 27 18 33 -11 12z"/>
 <path d="M383 329 c21 -12 23 -48 2 -55 -12 -5 -11 -9 7 -24 19 -15 20 -20 9 -34 -9 -11 -10 -16 -2 -16 18 0 25 31 12 51 -8 15 -8 24 1 38 14 23 -3 51 -31 51 -14 -1 -14 -2 2 -11z"/>
 <path d="M220 310 c-21 -7 -21 -8 -5 -9 11 0 27 4 35 9 18 11 5 11 -30 0z"/>
 <path d="M146 291 c-7 -11 12 -26 44 -36 42 -12 70 -34 70 -55 0 -24 -45 -38 -71 -21 -26 15 -34 14 -19 -4 17 -21 63 -19 91 3 31 26 19 49 -38 74 -59 26 -61 27 -43 38 12 8 10 10 -7 10 -12 0 -24 -4 -27 -9z"/>
 <path d="M320 211 c0 -10 24 -21 48 -21 11 0 6 6 -12 15 -33 18 -36 18 -36 6z"/>
 </g>

</svg>