<!DOCTYPE svg PUBLIC "-//W3C//DTD SVG 20010904//EN" "http://www.w3.org/TR/2001/REC-SVG-20010904/DTD/svg10.dtd">
<svg version="1.0" xmlns="http://www.w3.org/2000/svg" width="61px" height="49px" viewBox="0 0 610 490" preserveAspectRatio="xMidYMid meet">
<g id="layer101" fill="#dc0000" stroke="none">
 <path d="M355 462 c-44 -16 -113 -47 -153 -71 -93 -54 -204 -157 -200 -184 2 -16 50 -41 217 -113 118 -52 221 -94 231 -94 9 0 27 11 39 24 13 13 45 34 72 45 27 12 49 25 49 29 0 4 -30 94 -66 200 -76 220 -62 207 -189 164z"/>
 </g>
<g id="layer102" fill="#b64743" stroke="none">
 <path d="M355 462 c-44 -16 -113 -47 -153 -71 -93 -54 -204 -157 -200 -184 2 -16 50 -41 217 -113 118 -52 221 -94 231 -94 9 0 27 11 39 24 13 13 45 34 72 45 27 12 49 25 49 29 0 4 -30 94 -66 200 -76 220 -62 207 -189 164z m115 14 c0 -2 29 -86 65 -187 60 -169 64 -185 48 -197 -9 -6 -22 -12 -29 -12 -7 0 -34 -16 -60 -36 l-47 -36 -146 63 c-237 102 -291 128 -291 138 0 16 136 136 194 170 85 51 266 117 266 97z"/>
 <path d="M298 289 c-20 -11 -25 -49 -7 -49 6 0 19 10 28 21 15 18 21 20 39 10 29 -15 28 -29 -4 -41 -30 -12 -23 -30 12 -30 15 0 24 -6 24 -15 0 -18 -45 -21 -56 -4 -4 7 -9 8 -17 0 -15 -15 10 -41 42 -41 31 0 71 25 71 44 0 8 -6 19 -14 25 -7 6 -11 22 -8 36 2 14 -1 32 -8 40 -14 17 -76 20 -102 4z"/>
 </g>
<g id="layer103" fill="#dc5d60" stroke="none">
 <path d="M415 480 c-15 -7 -11 -8 19 -7 l39 2 34 -103 c19 -57 37 -102 39 -99 2 2 -12 51 -32 110 -38 113 -45 120 -99 97z"/>
 <path d="M316 449 c-85 -34 -184 -98 -251 -161 -36 -33 -65 -65 -65 -72 1 -6 15 5 33 25 75 84 173 149 307 205 30 13 48 23 40 23 -8 0 -37 -9 -64 -20z"/>
 <path d="M296 284 c-20 -20 -21 -44 -1 -44 8 0 15 6 15 14 0 22 40 31 57 13 17 -17 10 -37 -13 -37 -8 0 -14 -7 -14 -15 0 -9 9 -15 25 -15 15 0 25 -6 25 -14 0 -20 -20 -25 -48 -13 -29 13 -42 -1 -18 -19 28 -20 63 -17 86 6 17 17 19 24 8 43 -6 12 -11 34 -9 49 2 18 -4 30 -18 37 -29 16 -77 13 -95 -5z"/>
 <path d="M550 258 c0 -2 11 -38 25 -78 14 -40 25 -76 25 -80 0 -3 -15 -11 -34 -18 -41 -15 -120 -71 -112 -80 3 -3 19 6 34 21 15 14 48 35 75 47 26 11 47 24 47 29 0 11 -49 153 -55 159 -3 3 -5 3 -5 0z"/>
 <path d="M5 193 c12 -13 427 -195 432 -190 2 2 -92 46 -209 97 -117 51 -217 95 -223 98 -7 3 -7 1 0 -5z"/>
 </g>
<g id="layer104" fill="#e78d78" stroke="none">
 <path d="M476 470 c4 -14 13 -38 20 -55 11 -24 13 -25 8 -5 -4 14 -13 39 -20 55 -11 24 -13 25 -8 5z"/>
 <path d="M316 449 c-85 -34 -184 -98 -251 -161 -36 -33 -65 -64 -65 -70 0 -5 24 16 53 46 66 67 172 136 269 176 40 16 66 29 58 29 -8 0 -37 -9 -64 -20z"/>
 <path d="M297 282 c-21 -23 -22 -42 -2 -42 8 0 15 6 15 14 0 21 17 29 46 22 29 -8 31 -31 4 -46 -11 -6 -18 -15 -15 -21 4 -5 10 -7 14 -4 5 2 16 -1 25 -8 16 -12 17 -14 2 -27 -14 -11 -21 -11 -41 0 -31 17 -47 4 -20 -16 24 -18 74 -11 92 13 9 12 10 21 1 37 -7 11 -11 29 -9 39 7 48 -77 77 -112 39z"/>
 <path d="M552 248 c3 -7 13 -37 23 -66 9 -29 19 -52 21 -49 5 5 -36 127 -43 127 -3 0 -3 -6 -1 -12z"/>
 <path d="M129 135 c40 -20 75 -34 78 -32 2 2 -25 17 -59 32 -93 40 -104 40 -19 0z"/>
 <path d="M600 107 c0 -7 -15 -18 -33 -25 -39 -14 -120 -72 -112 -80 3 -3 18 6 33 21 15 14 48 35 75 47 26 11 47 27 47 35 0 8 -2 15 -5 15 -3 0 -5 -6 -5 -13z"/>
 <path d="M289 65 c40 -20 75 -34 78 -32 2 2 -25 17 -59 32 -93 40 -104 40 -19 0z"/>
 <path d="M400 15 c14 -8 30 -14 35 -14 6 0 -1 6 -15 14 -14 8 -29 14 -35 14 -5 0 1 -6 15 -14z"/>
 </g>
<g id="layer105" fill="#f5b1b4" stroke="none">
 <path d="M258 424 c-39 -21 -35 -28 5 -8 37 19 44 24 31 24 -5 -1 -21 -8 -36 -16z"/>
 <path d="M149 359 c-49 -35 -149 -129 -149 -141 0 -4 21 15 46 42 25 26 70 65 100 86 49 34 61 44 51 44 -2 0 -24 -14 -48 -31z"/>
 <path d="M302 284 c-22 -15 -30 -44 -12 -44 5 0 14 9 20 21 8 14 19 19 38 17 36 -4 42 -40 10 -56 -22 -10 -22 -11 -2 -11 32 -1 48 -25 28 -42 -12 -10 -20 -10 -35 -1 -11 7 -25 10 -31 6 -7 -4 0 -12 16 -21 22 -12 31 -12 54 -1 31 15 41 47 18 60 -13 7 -14 12 -3 29 10 17 9 23 -12 40 -28 23 -59 24 -89 3z"/>
 </g>
<g id="layer106" fill="#f9e9e7" stroke="none">
 <path d="M50 273 l-55 -58 58 55 c53 50 62 60 54 60 -1 0 -27 -26 -57 -57z"/>
 <path d="M314 290 c-12 -4 -24 -15 -27 -24 -8 -20 7 -21 23 -1 7 8 23 15 35 15 32 0 51 -25 35 -45 -7 -8 -20 -16 -29 -16 -9 -1 -2 -4 14 -8 21 -4 30 -12 30 -26 0 -24 -39 -33 -62 -13 -14 11 -15 11 -11 -2 7 -22 78 -20 92 3 9 15 7 21 -8 32 -15 11 -16 17 -7 28 16 20 3 47 -26 58 -28 11 -31 11 -59 -1z"/>
 </g>

</svg>