<!DOCTYPE svg PUBLIC "-//W3C//DTD SVG 20010904//EN" "http://www.w3.org/TR/2001/REC-SVG-20010904/DTD/svg10.dtd">
<svg version="1.0" xmlns="http://www.w3.org/2000/svg" width="59px" height="46px" viewBox="0 0 590 460" preserveAspectRatio="xMidYMid meet">
<g id="layer101" fill="#bc0001" stroke="none">
 <path d="M101 449 c-46 -4 -89 -13 -94 -18 -7 -7 -1 -50 17 -133 16 -68 32 -141 37 -163 5 -22 12 -56 15 -76 l6 -36 82 -6 c44 -4 92 -9 106 -12 22 -4 39 12 147 143 67 81 134 160 148 176 42 48 32 62 -65 88 -142 38 -264 50 -399 37z"/>
 </g>
<g id="layer102" fill="#7e2d33" stroke="none">
 <path d="M202 304 c-25 -17 -29 -44 -7 -44 8 0 15 6 15 14 0 15 25 24 53 18 24 -5 22 -49 -3 -57 -11 -3 -29 -4 -39 0 -29 9 -34 -9 -14 -50 14 -28 22 -35 38 -31 11 3 27 6 36 6 8 0 24 7 35 15 18 15 16 16 -25 13 -29 -2 -46 1 -48 10 -3 7 4 12 15 12 19 0 62 42 62 61 0 5 -9 18 -20 29 -24 24 -67 26 -98 4z"/>
 </g>
<g id="layer103" fill="#e78d78" stroke="none">
 <path d="M202 304 c-25 -17 -29 -44 -7 -44 8 0 15 6 15 14 0 17 27 28 51 21 26 -9 25 -52 -1 -60 -11 -3 -29 -4 -39 0 -29 9 -34 -9 -14 -50 14 -28 22 -35 38 -31 11 3 27 6 36 6 8 0 24 7 35 15 18 15 16 15 -30 13 -32 -2 -51 1 -53 10 -3 7 5 12 20 12 16 0 34 10 46 26 26 33 26 39 1 64 -24 24 -67 26 -98 4z"/>
 </g>
<g id="layer104" fill="#f5b1b4" stroke="none">
 <path d="M212 310 c-23 -10 -39 -36 -28 -47 4 -4 14 3 22 16 19 26 61 26 77 -1 17 -26 -9 -48 -54 -48 l-39 0 19 -38 20 -39 45 11 c55 13 62 29 8 20 -28 -4 -41 -2 -51 10 -12 14 -10 16 11 16 59 0 90 63 46 94 -25 18 -42 19 -76 6z"/>
 </g>
<g id="layer105" fill="#f3e3e2" stroke="none">
 <path d="M195 290 c-27 -29 -15 -32 18 -4 16 14 22 24 14 24 -8 0 -22 -9 -32 -20z"/>
 <path d="M273 296 c26 -20 22 -55 -8 -66 -36 -14 -31 -21 5 -8 49 17 50 89 1 88 -14 -1 -14 -2 2 -14z"/>
 <path d="M200 223 c0 -5 6 -21 13 -36 11 -25 15 -27 52 -21 22 3 45 11 50 16 7 7 2 8 -15 3 -14 -3 -33 -9 -42 -11 -15 -4 -46 32 -39 46 1 2 -2 6 -8 8 -6 2 -11 0 -11 -5z"/>
 </g>

</svg>