<!DOCTYPE svg PUBLIC "-//W3C//DTD SVG 20010904//EN" "http://www.w3.org/TR/2001/REC-SVG-20010904/DTD/svg10.dtd">
<svg version="1.0" xmlns="http://www.w3.org/2000/svg" width="61px" height="52px" viewBox="0 0 610 520" preserveAspectRatio="xMidYMid meet">
<g id="layer101" fill="#000001" stroke="none">
 <path d="M126 485 c-21 -19 -58 -42 -82 -51 -24 -9 -44 -22 -44 -28 0 -6 19 -100 42 -208 27 -126 47 -198 55 -198 6 0 49 12 95 26 91 29 198 80 268 127 66 45 150 127 150 147 0 11 -62 46 -214 118 -118 56 -218 102 -223 102 -4 -1 -25 -16 -47 -35z"/>
 </g>
<g id="layer102" fill="#2d2f32" stroke="none">
 <path d="M126 485 c-21 -19 -58 -42 -82 -51 -24 -9 -44 -22 -44 -28 0 -6 19 -100 42 -208 27 -126 47 -198 55 -198 6 0 49 12 95 26 91 29 198 80 268 127 66 45 150 127 150 147 0 11 -62 46 -214 118 -118 56 -218 102 -223 102 -4 -1 -25 -16 -47 -35z m267 -81 c111 -53 204 -98 206 -100 9 -9 -86 -97 -151 -140 -118 -79 -343 -169 -353 -141 -3 7 -21 86 -40 176 -20 91 -38 175 -41 186 -4 18 2 25 40 39 24 9 61 30 82 47 20 16 41 29 46 29 5 0 100 -43 211 -96z"/>
 <path d="M185 345 c-30 -29 -31 -37 -6 -59 11 -10 16 -25 14 -40 -11 -56 99 -55 113 1 4 15 2 28 -6 33 -9 5 -9 13 -2 27 8 15 7 25 -4 41 -22 31 -77 30 -109 -3z m75 -5 c20 -13 2 -44 -29 -48 -29 -5 -40 27 -16 44 22 16 25 17 45 4z m13 -85 c-1 -5 -8 -14 -17 -20 -18 -11 -42 7 -31 25 8 13 51 9 48 -5z"/>
 </g>
<g id="layer103" fill="#47494d" stroke="none">
 <path d="M126 485 c-21 -19 -58 -42 -82 -51 -24 -9 -44 -22 -44 -28 0 -6 19 -100 42 -208 27 -126 47 -198 55 -198 6 0 49 12 95 26 91 29 198 80 268 127 66 45 150 127 150 147 0 11 -62 46 -214 118 -118 56 -218 102 -223 102 -4 -1 -25 -16 -47 -35z m329 -110 c77 -36 142 -68 144 -71 8 -8 -72 -84 -134 -129 -80 -57 -182 -107 -284 -139 -46 -15 -85 -25 -86 -24 -1 2 -19 82 -39 178 -21 96 -40 184 -42 196 -4 17 3 24 39 38 24 9 62 32 83 50 l39 33 70 -32 c38 -18 133 -63 210 -100z"/>
 <path d="M198 359 c-33 -19 -42 -48 -22 -70 10 -11 18 -32 19 -47 0 -24 4 -27 41 -30 30 -2 45 2 59 18 16 18 17 24 7 41 -9 13 -9 25 -3 38 24 43 -50 80 -101 50z m62 -19 c20 -13 2 -44 -29 -48 -29 -5 -40 27 -16 44 22 16 25 17 45 4z m17 -87 c5 -15 -36 -28 -49 -15 -6 6 -7 15 -3 22 9 14 47 9 52 -7z"/>
 </g>
<g id="layer104" fill="#6b6a70" stroke="none">
 <path d="M126 485 c-21 -19 -58 -42 -82 -51 -24 -9 -44 -22 -44 -28 0 -6 19 -100 42 -208 27 -126 47 -198 55 -198 27 0 183 55 248 87 88 44 178 109 230 164 l40 43 -60 -50 c-77 -63 -118 -93 -177 -127 -52 -30 -205 -91 -254 -101 l-31 -7 -41 193 c-23 106 -42 196 -42 200 0 3 26 18 58 33 31 14 69 37 83 51 l25 24 212 -101 c117 -56 215 -100 217 -97 5 5 -418 208 -432 208 -4 -1 -25 -16 -47 -35z"/>
 <path d="M192 354 c-25 -17 -30 -62 -7 -70 10 -4 13 -13 9 -26 -3 -10 0 -25 6 -33 17 -21 74 -19 93 3 22 24 21 38 0 52 -13 8 -14 13 -5 16 6 3 12 16 12 29 0 42 -65 60 -108 29z m76 -31 c3 -17 -3 -24 -22 -29 -30 -7 -46 1 -46 26 0 36 63 39 68 3z m7 -73 c0 -9 -11 -16 -27 -18 -27 -3 -38 14 -21 32 12 12 48 2 48 -14z"/>
 </g>
<g id="layer105" fill="#878a91" stroke="none">
 <path d="M126 485 c-21 -19 -58 -42 -82 -51 -37 -14 -44 -21 -43 -43 2 -23 2 -24 6 -4 3 15 19 29 51 43 26 12 64 34 84 50 l36 30 212 -101 c117 -55 214 -99 216 -97 4 5 -420 208 -433 208 -4 -1 -25 -16 -47 -35z"/>
 <path d="M198 354 c-31 -16 -39 -60 -13 -70 10 -4 13 -13 9 -26 -13 -43 48 -64 94 -32 26 18 28 39 5 53 -15 8 -16 12 -5 22 18 19 15 47 -7 59 -27 14 -51 12 -83 -6z m70 -31 c4 -29 -42 -43 -65 -21 -13 13 -12 17 3 32 23 23 58 17 62 -11z m10 -70 c-4 -22 -58 -31 -58 -10 0 20 10 27 37 27 18 0 24 -5 21 -17z"/>
 <path d="M12 345 c0 -11 4 -31 8 -45 6 -20 8 -21 8 -5 0 11 -4 31 -8 45 -6 20 -8 21 -8 5z"/>
 <path d="M535 228 c-88 -76 -195 -139 -299 -176 -119 -43 -143 -47 -149 -25 -4 14 -5 13 -6 -4 -1 -29 9 -29 111 3 149 47 295 132 383 223 54 56 43 50 -40 -21z"/>
 <path d="M32 255 c0 -11 6 -42 13 -70 7 -27 13 -41 13 -30 0 11 -6 43 -13 70 -7 28 -13 41 -13 30z"/>
 <path d="M62 115 c0 -11 4 -31 8 -45 6 -20 8 -21 8 -5 0 11 -4 31 -8 45 -6 20 -8 21 -8 5z"/>
 </g>
<g id="layer106" fill="#aca59a" stroke="none">
 <path d="M149 503 c-8 -9 -34 -29 -58 -45 -25 -15 -41 -28 -35 -28 13 0 75 38 101 62 l21 20 138 -66 c75 -36 139 -65 141 -63 4 5 -271 137 -285 137 -5 0 -16 -8 -23 -17z"/>
 <path d="M530 345 c36 -19 70 -34 75 -34 6 0 -19 15 -55 34 -36 19 -69 34 -75 34 -5 0 19 -15 55 -34z"/>
 <path d="M210 359 c-43 -17 -56 -67 -21 -76 16 -4 18 -8 9 -23 -22 -35 27 -63 76 -44 28 11 38 40 21 58 -13 13 -14 19 -3 36 11 19 10 24 -11 41 -26 21 -35 22 -71 8z m60 -24 c10 -12 10 -18 0 -30 -17 -20 -66 -19 -74 1 -14 37 48 61 74 29z m-6 -61 c21 -8 20 -31 -1 -42 -35 -18 -58 9 -31 36 14 14 12 14 32 6z"/>
 <path d="M589 273 c-36 -44 -171 -139 -262 -184 -56 -28 -91 -47 -77 -43 45 12 164 76 225 119 56 40 146 125 133 125 -3 0 -12 -8 -19 -17z"/>
 <path d="M80 18 c0 -12 7 -18 23 -17 15 0 17 2 7 6 -8 3 -18 11 -22 17 -5 7 -8 4 -8 -6z"/>
 </g>
<g id="layer107" fill="#bfbfc3" stroke="none">
 <path d="M149 503 c-8 -9 -34 -29 -58 -45 -25 -15 -40 -28 -35 -28 6 0 36 18 67 40 36 24 64 37 74 34 15 -5 16 -4 3 5 -21 15 -35 14 -51 -6z"/>
 <path d="M320 445 c47 -24 90 -44 95 -44 6 0 -28 20 -75 44 -47 24 -89 44 -95 44 -5 0 28 -20 75 -44z"/>
 <path d="M530 345 c36 -19 70 -34 75 -34 6 0 -19 15 -55 34 -36 19 -69 34 -75 34 -5 0 19 -15 55 -34z"/>
 <path d="M215 360 c-12 -4 -27 -15 -34 -23 -15 -19 -6 -57 15 -57 17 0 18 -12 3 -27 -7 -7 -5 -15 6 -27 32 -31 95 -13 95 29 0 13 -5 25 -11 27 -8 3 -8 10 2 27 13 20 12 24 -10 42 -25 21 -35 22 -66 9z m55 -25 c10 -12 10 -18 0 -30 -16 -20 -69 -20 -76 0 -14 36 50 62 76 30z m5 -79 c0 -29 -31 -44 -51 -25 -14 15 -14 18 1 33 22 21 50 17 50 -8z"/>
 <path d="M574 259 c-54 -57 -148 -122 -249 -171 -55 -27 -89 -46 -75 -42 45 12 163 75 225 119 54 39 147 125 134 125 -3 0 -18 -14 -35 -31z"/>
 <path d="M80 18 c0 -12 7 -18 23 -17 15 0 17 2 7 6 -8 3 -18 11 -22 17 -5 7 -8 4 -8 -6z"/>
 </g>
<g id="layer108" fill="#edeaf0" stroke="none">
 <path d="M125 483 c-43 -39 -33 -36 29 9 21 15 33 28 25 28 -8 -1 -32 -17 -54 -37z"/>
 <path d="M280 465 c25 -13 50 -24 55 -24 6 0 -10 11 -35 24 -25 13 -49 24 -55 24 -5 0 10 -11 35 -24z"/>
 <path d="M510 355 c25 -13 50 -24 55 -24 6 0 -10 11 -35 24 -25 13 -49 24 -55 24 -5 0 10 -11 35 -24z"/>
 <path d="M187 342 c-22 -24 -21 -39 2 -54 15 -9 18 -19 14 -40 -4 -23 -1 -28 21 -34 47 -11 104 46 61 62 -12 5 -12 9 2 30 12 19 13 27 3 39 -18 21 -83 19 -103 -3z m90 -9 c7 -19 -32 -55 -55 -51 -25 5 -38 34 -23 52 18 21 70 21 78 -1z m2 -67 c9 -11 8 -18 -4 -30 -21 -20 -39 -20 -56 0 -11 14 -10 18 6 30 24 18 39 18 54 0z"/>
 <path d="M565 249 c-22 -22 -74 -63 -115 -91 -83 -55 -98 -67 -60 -48 46 23 145 98 185 139 21 23 37 41 34 41 -3 0 -23 -18 -44 -41z"/>
 </g>

</svg>