<svg id="icons" xmlns="http://www.w3.org/2000/svg" width="36" height="36" viewBox="0 0 36 36">
  <defs>
    <style>
      .cls-1 {
        fill: #2d0009;
      }

      .cls-2 {
        fill: #ff4374;
        fill-rule: evenodd;
      }
    </style>
  </defs>
  <title>S_Stock_Color_18_N@2x</title>
  <g>
    <rect class="cls-1" x="1.5" y="1.54" width="33" height="32.93"/>
    <path class="cls-2" d="M0,36H36V0H0ZM1.5,1.54h33V34.47H1.5Z"/>
    <path class="cls-2" d="M26.33,24.66a.271.271,0,0,1-.18.28,4.731,4.731,0,0,1-1.83.31c-1.88,0-2.94-1.02-2.94-3.4V14.93H19.95c-.12,0-.15-.05-.15-.18V12.71c0-.13.03-.21.17-.21H21.4a25.583,25.583,0,0,1,.22-2.91c0-.18.07-.23.17-.26l2.23-.3c.1-.03.17,0,.17.12-.05.74-.07,1.98-.09,3.35h2.17c.12,0,.17.06.17.18v2.1c0,.12-.08.15-.17.15H24.08v6.45c0,1.04.34,1.51,1.26,1.51a3.445,3.445,0,0,0,.84-.1c.07-.03.15.02.15.15ZM9.15,24.44A.387.387,0,0,1,9,24.11V21.67a.12.12,0,0,1,.2-.08,6.293,6.293,0,0,0,3.65,1.14c1.81,0,2.55-.96,2.55-2.05,0-.97-.47-1.75-2.2-2.79l-.89-.49c-2.55-1.47-3.29-2.97-3.29-4.87,0-2.59,1.75-4.67,5.07-4.67a6.817,6.817,0,0,1,3.16.58c.13.05.15.13.15.28v2.29a.122.122,0,0,1-.2.1,5.693,5.693,0,0,0-3.06-.76c-1.91,0-2.53,1.11-2.53,2,0,.97.48,1.68,2.18,2.64l.79.43c2.83,1.6,3.54,3.15,3.54,5.06,0,2.81-2,4.77-5.27,4.77A7.621,7.621,0,0,1,9.15,24.44Z"/>
  </g>
</svg>
